# xmcd
#
# Track frame offsets: 
#        150
#        14862
#        32809
#        44833
#        60425
#        77299
#        96385
#        121095
#        136356
#        149986
#        164550
#        183466
#
# Disc length: 2802 seconds
#
# Revision: 0
# Processed by: cddbd v1.5.2PL0 Copyright (c) Steve Scherf et al.
# Submitted via: ExactAudioCopyFreeDBPlugin 1.0
#
DISCID=b20af00c
DTITLE=Leftover Salmon - Aquatic Hitchhiker
DYEAR=2012
DGENRE=Polyethnic Cajun Slamgrass
TTITLE0=Gulf of Mexico
TTITLE1=Keep Driving
TTITLE2=Liza
TTITLE3=Aquatic Hitchhiker
TTITLE4=Bayou Town
TTITLE5=Sing up to the Moon
TTITLE6=Light Behind the Rain
TTITLE7=Stop all your Worrying
TTITLE8=Walking Shoes
TTITLE9=Kentucky Skies
TTITLE10=Gone for Long
TTITLE11=Here Comes the Night
EXTD=
EXTT0=
EXTT1=
EXTT2=
EXTT3=
EXTT4=
EXTT5=
EXTT6=
EXTT7=
EXTT8=
EXTT9=
EXTT10=
EXTT11=
PLAYORDER=
